<?xml version="1.0" standalone="no"?><!DOCTYPE svg PUBLIC "-//W3C//DTD SVG 1.1//EN" "http://www.w3.org/Graphics/SVG/1.1/DTD/svg11.dtd"><svg t="1728508600234" class="icon" viewBox="0 0 3220 1024" version="1.1" xmlns="http://www.w3.org/2000/svg" p-id="6529" xmlns:xlink="http://www.w3.org/1999/xlink" width="628.90625" height="200"><path d="M144.680652 147.776824a119.484979 119.484979 0 0 1 95.587983 45.871245V153.545064h65.922747v299.948498H261.41885a20.875536 20.875536 0 0 1-21.150215-21.150214V412.017167a118.386266 118.386266 0 0 1-95.587983 46.145923A148.875536 148.875536 0 0 1 0.199966 305.991416 9.339056 9.339056 0 0 1 0.199966 302.145923a148.875536 148.875536 0 0 1 142.008583-154.643777h2.472103m10.712447 59.879828a89.819742 89.819742 0 0 0-89.545065 90.094421 44.497854 44.497854 0 0 0 0 6.042918 89.545064 89.545064 0 1 0 178.540773 14.008584 119.2103 119.2103 0 0 0 0-14.008584 90.094421 90.094421 0 0 0-82.403434-95.862661h-6.592274m224.412017-54.935622h65.922747V192.274678a103.004292 103.004292 0 0 1 90.918455-46.695279c69.493562 0 114.540773 49.167382 114.540772 125.253219v180.463519h-43.67382a20.600858 20.600858 0 0 1-21.150214-20.051502v-147.502146c0-47.519313-23.896996-76.360515-62.351932-76.085837-43.67382 0-77.184549 34.060086-77.184549 98.334764v147.502146h-44.223176a21.424893 21.424893 0 0 1-21.150214-21.150214z m466.95279-5.76824A119.484979 119.484979 0 0 1 942.345888 192.274678V3.845494h65.648069v449.648068h-42.575107a20.600858 20.600858 0 0 1-21.150215-20.600858V412.017167a119.2103 119.2103 0 0 1-95.862661 46.145923 149.424893 149.424893 0 0 1-143.93133-154.369099V302.145923a149.150215 149.150215 0 0 1 142.283262-155.74249h1.922746m12.085837 59.879829a89.819742 89.819742 0 0 0-89.545064 90.09442 44.497854 44.497854 0 0 0 0 6.042919 89.545064 89.545064 0 1 0 178.540772 14.008584 119.2103 119.2103 0 0 0 0-14.008584 90.094421 90.094421 0 0 0-82.403433-95.862661h-5.76824m224.412017-54.935622h65.922747v54.935622a82.403433 82.403433 0 0 1 78.832618-56.583691 137.339056 137.339056 0 0 1 25.819742 2.472103V219.742489a104.927039 104.927039 0 0 0-32.961373-5.493562c-37.630901 0-71.690987 31.862661-71.690987 91.742489v146.403434h-45.871245a20.600858 20.600858 0 0 1-21.150215-20.600859z m346.918455 307.914163a155.193133 155.193133 0 1 1 3.570815 0h-3.570815m0-61.253219a89.819742 89.819742 0 0 0 89.819742-89.819743v-4.944206a90.094421 90.094421 0 0 0-180.188841 0A89.819742 89.819742 0 0 0 1428.526146 398.283262h5.76824M1675.736446 88.446352a44.223176 44.223176 0 1 1 44.772533-43.67382 44.772532 44.772532 0 0 1-43.948498 44.223176m-32.961374 65.098713h65.922747v299.399141h-45.04721a20.600858 20.600858 0 0 1-15.107296-6.317596 21.150215 21.150215 0 0 1-6.042919-14.832618z m264.240344-5.768241A119.484979 119.484979 0 0 1 2005.35018 194.746781V3.845494h65.922747v449.648068h-46.695279a20.875536 20.875536 0 0 1-21.150215-21.150214V412.017167a118.386266 118.386266 0 0 1-95.587982 46.145923 149.150215 149.150215 0 0 1-144.755365-153.545064V302.145923a149.150215 149.150215 0 0 1 142.283262-155.74249h2.197425m11.811158 59.879829a89.819742 89.819742 0 0 0-87.622317 92.017167 20.875536 20.875536 0 0 0 0 4.120172 89.545064 89.545064 0 1 0 178.540772 14.008584 119.2103 119.2103 0 0 0 0-14.008584 90.094421 90.094421 0 0 0-82.403433-95.862661h-7.690987M720.95533 919.622318v-146.128756H659.427433V714.16309h62.901288v-84.051502h66.197425V714.16309h85.150215v59.330472h-86.523606v135.141631c0 38.180258 16.480687 51.364807 50.815451 51.364807a88.995708 88.995708 0 0 0 35.708155-6.042918v59.330472a159.313305 159.313305 0 0 1-49.442061 6.866952 94.214592 94.214592 0 0 1-103.27897-84.32618 79.93133 79.93133 0 0 1 0-16.206008z m1031.416309-54.935623a158.48927 158.48927 0 1 1 158.489271 158.489271 156.291845 156.291845 0 0 1-158.214592-154.369099v-4.120172z m249.133048 0a93.390558 93.390558 0 1 0 0 4.944206v-4.944206z m-1538.197425 59.60515a54.935622 54.935622 0 0 0 62.351931 44.772533c29.665236 0 49.167382-12.085837 49.167382-32.137339s-13.184549-32.137339-44.772532-40.103005l-49.716738-13.184549a90.918455 90.918455 0 0 1-77.459228-91.467811c0-50.815451 44.772532-84.875536 112.618026-84.875537s109.871245 35.708155 115.639485 90.918455h-65.648069a48.343348 48.343348 0 0 0-49.716738-37.630901c-26.094421 0-44.223176 11.536481-44.223176 30.763948s13.459227 29.665236 40.927039 36.806867l50.81545 13.459228c54.935622 14.008584 80.755365 44.223176 80.755365 91.467811 0 57.682403-48.343348 89.545064-118.660944 89.545064a151.622318 151.622318 0 0 1-90.918455-27.467811 90.094421 90.094421 0 0 1-39.27897-70.866953z m658.128755 50.815451a99.433476 99.433476 0 0 1-87.072961 47.793992c-69.493562 0-112.618026-50.266094-112.618026-127.725322V714.16309H989.041167v170.025751C989.041167 933.905579 1010.191382 961.373391 1048.920996 961.373391c44.223176 0 73.888412-36.257511 73.888412-99.158799V714.16309h66.472103v302.145923h-67.845494z m364.497854 0a120.858369 120.858369 0 0 1-94.48927 46.969957 148.600858 148.600858 0 0 1-145.854077-151.347639 20.875536 20.875536 0 0 1 0-4.120172 148.051502 148.051502 0 0 1 140.635193-155.467811h4.944206a120.858369 120.858369 0 0 1 95.862661 46.145923v-190.077254h65.648068V1016.309013h-66.746781zM1336.508979 933.905579A82.403433 82.403433 0 0 0 1401.058335 961.373391a80.755365 80.755365 0 0 0 64-27.467812 105.751073 105.751073 0 0 0 0-137.339055A82.403433 82.403433 0 0 0 1401.058335 769.098712a82.403433 82.403433 0 0 0-64.824035 27.467812 107.124464 107.124464 0 0 0 0.274679 137.339055zM1659.25576 562.266094a44.223176 44.223176 0 0 1 0 88.171674 44.772532 44.772532 0 0 1-38.454936-21.699571 43.67382 43.67382 0 0 1 0-44.772532 44.772532 44.772532 0 0 1 38.454936-21.699571z m34.334764 153.270387V1016.309013h-65.922747V715.536481z" p-id="6530"></path><path d="M2692.045459 129.373391h-232.103004a85.150215 85.150215 0 0 0-84.875537 85.150214 82.403433 82.403433 0 0 0 79.931331 84.875537h238.695279z" fill="#073042" p-id="6531"></path><path d="M3218.054043 886.111588H2459.667777a85.150215 85.150215 0 0 1-84.600859-84.875536V213.974249a85.150215 85.150215 0 0 0 84.600859 85.699571h634.781116s123.60515-10.712446 123.60515 82.403433z" fill="#4285F4" p-id="6532"></path><path d="M2864.268635 585.339056a76.360515 76.360515 0 0 0-43.67382-137.339056h2.472103a54.935622 54.935622 0 0 1 13.459228 0v-47.244635a15.381974 15.381974 0 0 0-7.141631-13.459228 14.832618 14.832618 0 0 0-22.248927 13.459228v48.068669a76.360515 76.360515 0 0 0-63.725322 87.622318 75.536481 75.536481 0 0 0 30.214592 49.716738l-139.811158 298.849786h91.193133l64.549356-137.339056a33.236052 33.236052 0 0 1 60.154506 0l66.472103 137.339056h92.291846z m-46.695279-13.459228a47.244635 47.244635 0 0 1-46.969957-47.519313 47.244635 47.244635 0 0 1 79.931331-33.51073 47.244635 47.244635 0 0 1-32.961374 81.030043z" fill="#3870B2" p-id="6533"></path><path d="M2641.230009 171.124464H2966.723571V230.729614H2641.230009z" fill="#FFFFFF" p-id="6534"></path><path d="M2792.30297 477.665236a46.969957 46.969957 0 1 1-47.519313 46.695279 48.06867 48.06867 0 0 1 14.008583-32.961373 47.244635 47.244635 0 0 1 33.51073-13.733906z m18.678112-27.467811v-49.44206a15.381974 15.381974 0 0 0-7.141631-13.459228 14.832618 14.832618 0 0 0-22.248927 13.459228v48.068669a76.360515 76.360515 0 0 0-63.725322 87.622318 75.536481 75.536481 0 0 0 30.214592 49.716738l-175.519313 377.682404a41.201717 41.201717 0 0 0 3.021459 42.025751 41.476395 41.476395 0 0 0 72.240343-6.866953l117.012876-251.330472a33.236052 33.236052 0 0 1 60.154506 0l120.034335 249.957081a41.476395 41.476395 0 0 0 74.712446-36.25751l-180.738197-376.034335a77.184549 77.184549 0 0 0-27.467811-134.866953" fill="#073042" p-id="6535"></path><path d="M2918.654901 223.587983a21.974249 21.974249 0 0 1-22.523605-21.424893 21.150215 21.150215 0 0 1 6.592275-16.206008 22.248927 22.248927 0 0 1 31.313305 0 23.072961 23.072961 0 0 1 6.592274 15.381974 21.974249 21.974249 0 0 1-21.974249 21.974249m-244.188841 0a21.974249 21.974249 0 0 1-22.248927-21.699571 21.424893 21.424893 0 0 1 6.592275-15.931331 21.974249 21.974249 0 0 1 31.313304-3.021459A22.523605 22.523605 0 0 1 2692.045459 214.248927l-3.021459 3.021459a22.248927 22.248927 0 0 1-15.656652 6.317597m252.154506-133.218884l43.948498-76.360515a9.339056 9.339056 0 0 0-2.746781-12.085837 8.7897 8.7897 0 0 0-10.712447 2.746781L2910.13988 82.403433a276.875536 276.875536 0 0 0-226.88412 0L2638.483227 4.669528a9.339056 9.339056 0 0 0-7.965665-4.669528 10.16309 10.16309 0 0 0-7.965665 4.669528 9.339056 9.339056 0 0 0 0 9.339056l44.223176 76.360515a261.493562 261.493562 0 0 0-135.141631 209.030043h530.128755a261.493562 261.493562 0 0 0-135.14163-209.030043" fill="#3DDC84" p-id="6536"></path><path d="M3141.968206 462.283262h-34.88412a4.39485 4.39485 0 0 0-3.021459 4.669528v549.356223a4.39485 4.39485 0 0 0 4.120171 4.39485h35.982833a76.360515 76.360515 0 0 0 76.085837-76.360515V385.922747a76.360515 76.360515 0 0 1-76.360515 76.360515z" fill="#073042" p-id="6537"></path></svg>