<?xml version="1.0" standalone="no"?><!DOCTYPE svg PUBLIC "-//W3C//DTD SVG 1.1//EN" "http://www.w3.org/Graphics/SVG/1.1/DTD/svg11.dtd"><svg t="1729768417602" class="icon" viewBox="0 0 1024 1024" version="1.1" xmlns="http://www.w3.org/2000/svg" p-id="3328" xmlns:xlink="http://www.w3.org/1999/xlink" width="200" height="200"><path d="M881.046352 284.791748a62.757118 62.757118 0 0 0 0.431135-118.1041L570.06314 12.314299a159.681701 159.681701 0 0 0-61.302037-12.287353 147.609915 147.609915 0 0 0-67.122362 15.116678L129.577692 175.606758a62.757118 62.757118 0 0 0-0.161676 118.211883l311.090996 154.211673a160.112836 160.112836 0 0 0 61.382874 12.314299h1.778433a149.334456 149.334456 0 0 0 65.343929-15.116678zM821.576639 226.965739l-289.749802 147.90632a69.736119 69.736119 0 0 1-30.152518 5.38919 59.846955 59.846955 0 0 1-27.35014-5.38919L189.07435 233.378875l289.453397-147.825483a69.897795 69.897795 0 0 1 30.368086-5.38919 58.55355 58.55355 0 0 1 27.377086 5.38919z" fill="#30C4AB" p-id="3329"></path><path d="M434.147767 474.625967l-275.92653-146.612915a75.017525 75.017525 0 0 0-40.688385-11.101732 60.54755 60.54755 0 0 0-63.565496 57.42182v397.830009a113.873586 113.873586 0 0 0 65.828956 93.852745l278.109152 146.639861a76.418715 76.418715 0 0 0 39.583601 11.182569h2.856271a60.224199 60.224199 0 0 0 59.766117-58.957739V568.451766a113.84664 113.84664 0 0 0-65.963686-93.825799z m-13.607705 94.849745v366.734382L142.592586 795.794748a40.418925 40.418925 0 0 1-21.368139-24.493869V404.647334l278.001369 140.361455a40.418925 40.418925 0 0 1 21.314246 24.439977z" fill="#138172" p-id="3330"></path><path d="M911.441383 316.884375h-2.937108a107.783801 107.783801 0 0 0-40.014736 10.77838L592.940252 474.248724a114.789748 114.789748 0 0 0-66.691227 94.310825v393.734225A60.143361 60.143361 0 0 0 584.748683 1023.946108h2.694595a83.532446 83.532446 0 0 0 40.176412-10.77838l275.737908-146.693753a114.57418 114.57418 0 0 0 66.691227-94.310826v-393.680332a60.224199 60.224199 0 0 0-58.607442-61.598442z m-8.757433 87.762959v366.761329a41.362034 41.362034 0 0 1-21.799274 24.736382l-275.172044 140.118941V569.448766a41.038682 41.038682 0 0 1 21.799274-24.736382z" fill="#138172" p-id="3331"></path></svg>