<?xml version="1.0" standalone="no"?><!DOCTYPE svg PUBLIC "-//W3C//DTD SVG 1.1//EN" "http://www.w3.org/Graphics/SVG/1.1/DTD/svg11.dtd"><svg t="1728553036740" class="icon" viewBox="0 0 1024 1024" version="1.1" xmlns="http://www.w3.org/2000/svg" p-id="4243" xmlns:xlink="http://www.w3.org/1999/xlink" width="200" height="200"><path d="M116.454902 538.101961c0 32.12549-2.007843 42.164706-8.031373 48.188235-8.031373 6.023529-16.062745 10.039216-26.10196 10.039216l2.007843 18.070588c14.054902 0 30.117647-6.023529 40.156863-14.054902 6.023529-8.031373 10.039216-16.062745 14.054901-26.101961 2.007843-10.039216 4.015686-18.070588 2.007844-28.109804v-118.462745H116.454902v110.431373zM295.152941 524.047059c0 14.054902 0 26.101961 2.007843 36.141176h-22.086274l-2.007843-22.086274c-4.015686 8.031373-10.039216 14.054902-18.070589 18.070588s-16.062745 6.023529-24.094117 6.023529c-20.078431 0-46.180392-12.047059-46.180392-56.219607v-76.29804h24.094117V501.960784c0 24.094118 8.031373 42.164706 30.117647 42.164706 4.015686 0 8.031373 0 12.047059-2.007843 4.015686-2.007843 8.031373-4.015686 10.039216-8.031372 4.015686-4.015686 6.023529-6.023529 8.031372-10.039216s2.007843-8.031373 2.007844-12.047059v-80.313725h24.094117v92.360784zM407.592157 427.670588c-10.039216 0-18.070588 2.007843-26.101961 6.02353-8.031373 4.015686-16.062745 12.047059-20.078431 20.078431l-2.007843-22.086274h-22.086275c2.007843 12.047059 2.007843 26.101961 2.007843 42.164705v140.54902h24.094118V542.117647c4.015686 6.023529 10.039216 12.047059 18.070588 16.062745 8.031373 4.015686 14.054902 6.023529 22.086275 4.015686 30.117647 0 60.235294-24.094118 60.235294-70.274509 0-38.14902-24.094118-64.25098-56.219608-64.250981z m-6.02353 116.454902c-8.031373 0-16.062745-2.007843-22.086274-8.031372s-12.047059-12.047059-14.054902-20.078432c0-4.015686-2.007843-6.023529-2.007843-10.039215v-22.086275c0-10.039216 4.015686-20.078431 12.047059-26.101961 6.023529-8.031373 16.062745-12.047059 26.10196-12.047059 26.101961 0 38.14902 22.086275 38.14902 48.188236 0 30.117647-14.054902 50.196078-38.14902 50.196078zM505.976471 429.678431l28.109804 76.29804c4.015686 8.031373 6.023529 18.070588 8.031372 26.10196 2.007843-8.031373 6.023529-18.070588 8.031373-28.109804l26.10196-76.298039h26.101961l-36.141176 92.360785c-18.070588 44.172549-28.109804 68.266667-46.180392 82.321568-8.031373 8.031373-18.070588 12.047059-30.117648 16.062745l-6.023529-20.078431c8.031373-2.007843 14.054902-6.023529 20.078431-12.047059 8.031373-8.031373 16.062745-16.062745 20.078432-26.101961 0-2.007843 2.007843-4.015686 2.007843-6.023529 0-2.007843 0-4.015686-2.007843-6.02353l-48.188235-120.470588 30.117647 2.007843zM666.603922 391.529412v38.149019h34.133333v18.070589h-34.133333v70.274509c0 16.062745 4.015686 26.101961 18.070588 26.101961 4.015686 0 10.039216 0 14.054902-2.007843l2.007843 18.070588c-6.023529 2.007843-14.054902 4.015686-22.086275 4.015687-4.015686 0-10.039216 0-14.054902-2.007844-4.015686-2.007843-8.031373-4.015686-12.047058-8.031372-8.031373-10.039216-10.039216-22.086275-10.039216-34.133333v-72.282353h-20.078431v-18.070589h20.078431v-32.12549l24.094118-6.023529zM837.270588 489.913725c0-24.094118-10.039216-62.243137-54.211764-62.243137-38.14902 0-62.243137 30.117647-62.243138 70.27451 0 8.031373 0 18.070588 4.015687 26.101961s8.031373 16.062745 14.054902 22.086274 14.054902 12.047059 22.086274 14.054902c8.031373 4.015686 16.062745 4.015686 26.101961 4.015687 14.054902 0 30.117647-2.007843 44.172549-8.031373l-4.015686-18.070588c-12.047059 4.015686-24.094118 8.031373-36.141177 6.023529-6.023529 0-12.047059 0-18.070588-2.007843-6.023529-2.007843-10.039216-6.023529-16.062745-10.039216-4.015686-4.015686-8.031373-10.039216-10.039216-16.062745-2.007843-6.023529-2.007843-12.047059-2.007843-18.070588h92.360784v-8.031373z m-22.086274-8.031372h-70.27451c0-10.039216 4.015686-20.078431 10.039216-26.101961 6.023529-8.031373 16.062745-12.047059 26.10196-12.047059 4.015686 0 10.039216 2.007843 14.054902 4.015687s8.031373 4.015686 12.047059 8.031372c4.015686 4.015686 6.023529 8.031373 6.02353 12.047059 4.015686 4.015686 4.015686 8.031373 2.007843 14.054902zM873.411765 469.835294c0-16.062745 0-28.109804-2.007843-40.156863H893.490196v26.101961h2.007843c2.007843-8.031373 6.023529-14.054902 14.054902-20.078431 6.023529-6.023529 14.054902-8.031373 22.086275-8.031373h6.023529v22.086275h-8.031372c-8.031373 0-16.062745 4.015686-22.086275 10.039215-6.023529 6.023529-10.039216 14.054902-10.039216 22.086275 0 4.015686-2.007843 8.031373-2.007843 12.047059v70.27451h-24.094117l2.007843-94.368628z" fill="#4E4E4E" p-id="4244"></path><path d="M863.372549 70.27451c0 12.047059-2.007843 24.094118-8.031373 34.133333-6.023529 10.039216-16.062745 18.070588-26.10196 24.094118-10.039216 6.023529-22.086275 8.031373-34.133334 6.023529-12.047059-2.007843-22.086275-6.023529-32.12549-14.054902s-16.062745-18.070588-18.070588-30.117647c-2.007843-12.047059-2.007843-24.094118 2.007843-36.141176 4.015686-12.047059 12.047059-22.086275 22.086275-28.109804 10.039216-8.031373 22.086275-12.047059 34.133333-12.047059 8.031373 0 16.062745 0 24.094118 4.015686s14.054902 6.023529 20.078431 12.047059c6.023529 6.023529 10.039216 12.047059 14.054902 18.070588 0 6.023529 2.007843 14.054902 2.007843 22.086275z" fill="#767677" p-id="4245"></path><path d="M509.992157 771.011765c-160.627451 0-303.184314-58.227451-375.466667-142.556863 28.109804 76.298039 80.313725 142.556863 146.572549 188.737255 66.258824 46.180392 146.572549 72.282353 228.894118 72.282353 82.321569 0 160.627451-24.094118 228.894118-72.282353 66.258824-46.180392 118.462745-112.439216 146.572549-188.737255-72.282353 84.329412-212.831373 142.556863-375.466667 142.556863zM509.992157 216.847059c160.627451 0 303.184314 58.227451 375.466667 142.556863-28.109804-76.298039-80.313725-142.556863-146.572549-188.737255C672.627451 124.486275 592.313725 98.384314 509.992157 98.384314c-82.321569 0-160.627451 24.094118-228.894118 72.282353-66.258824 46.180392-118.462745 112.439216-146.572549 188.737255 74.290196-86.337255 214.839216-142.556863 375.466667-142.556863z" fill="#F37726" p-id="4246"></path><path d="M152.596078 196.768627c-8.031373 0-18.070588-2.007843-24.094117-6.023529-8.031373-4.015686-14.054902-12.047059-16.062745-20.078431-4.015686-8.031373-4.015686-16.062745-4.015687-26.101961 2.007843-8.031373 6.023529-16.062745 12.047059-22.086275s14.054902-10.039216 22.086275-12.047058 18.070588-2.007843 26.101961 2.007843 16.062745 8.031373 20.078431 16.062745 8.031373 16.062745 8.031372 24.094117c0 12.047059-4.015686 24.094118-12.047058 32.125491-8.031373 6.023529-20.078431 12.047059-32.125491 12.047058z" fill="#616262" p-id="4247"></path><path d="M289.129412 937.662745c0 16.062745-2.007843 30.117647-10.039216 44.172549s-18.070588 24.094118-32.12549 30.117647-28.109804 8.031373-44.172549 6.02353-28.109804-8.031373-40.156863-18.070589c-12.047059-10.039216-20.078431-24.094118-22.086274-38.149019-4.015686-14.054902-2.007843-30.117647 2.007843-44.172549s14.054902-26.101961 26.101961-36.141177c12.047059-8.031373 26.101961-14.054902 42.164705-14.054902 10.039216 0 20.078431 0 30.117647 4.015687s18.070588 8.031373 26.101961 16.062745c8.031373 6.023529 14.054902 14.054902 18.070588 24.094117 0 6.023529 2.007843 16.062745 4.015687 26.101961z" fill="#9E9E9E" p-id="4248"></path></svg>