<?xml version="1.0" standalone="no"?><!DOCTYPE svg PUBLIC "-//W3C//DTD SVG 1.1//EN" "http://www.w3.org/Graphics/SVG/1.1/DTD/svg11.dtd"><svg t="1729777370479" class="icon" viewBox="0 0 1024 1024" version="1.1" xmlns="http://www.w3.org/2000/svg" p-id="4259" xmlns:xlink="http://www.w3.org/1999/xlink" width="200" height="200"><path d="M240 160A80.576 80.576 0 0 0 160 240v544C160 827.744 196.256 864 240 864h544c43.744 0 80-36.256 80-80v-544C864 196.256 827.744 160 784 160z m0 64h544c9.12 0 16 6.88 16 16v544c0 9.12-6.88 16-16 16h-544a15.648 15.648 0 0 1-16-16v-544c0-9.12 6.88-16 16-16z m94.016 55.008a55.008 55.008 0 1 0 0 109.984 55.008 55.008 0 0 0 0-109.984z m288.96 145.984c-45.856 0-76.352 25.12-88.96 48.992h-2.016V432h-90.016V736h94.016v-150.016c0-39.616 7.872-77.984 56.992-77.984 48.384 0 49.024 44.736 49.024 80V736H736v-167.008c0-81.728-17.376-144-112.992-144zM288 432V736h95.008v-304z" p-id="4260" fill="#8a8a8a"></path></svg>